<mxfile host="app.diagrams.net" modified="2022-08-24T06:50:22.959Z" agent="5.0 (Macintosh; Intel Mac OS X 10_15_7) AppleWebKit/537.36 (KHTML, like Gecko) Chrome/104.0.0.0 Safari/537.36" etag="LWsEuEPpXt8F_5mGRWsy" version="20.2.6" type="github">
  <diagram id="mop2T_lTWs27Sv8fD1Fe" name="第 1 页">
    <mxGraphModel dx="1426" dy="624" grid="1" gridSize="10" guides="1" tooltips="1" connect="1" arrows="1" fold="1" page="1" pageScale="1" pageWidth="827" pageHeight="1169" math="0" shadow="0">
      <root>
        <mxCell id="0" />
        <mxCell id="1" parent="0" />
        <mxCell id="_5qrmcJRJbXf1N6IQA08-1" value="&lt;font style=&quot;font-size: 24px;&quot;&gt;发薪联盟广告管理平台&lt;/font&gt;" style="rounded=1;whiteSpace=wrap;html=1;strokeColor=#97D077;" vertex="1" parent="1">
          <mxGeometry x="120" y="230" width="180" height="70" as="geometry" />
        </mxCell>
        <mxCell id="_5qrmcJRJbXf1N6IQA08-2" value="&lt;font style=&quot;font-size: 24px;&quot;&gt;管理员&lt;/font&gt;" style="rounded=0;whiteSpace=wrap;html=1;strokeColor=#97D077;" vertex="1" parent="1">
          <mxGeometry x="540" y="120" width="120" height="60" as="geometry" />
        </mxCell>
        <mxCell id="_5qrmcJRJbXf1N6IQA08-3" value="&lt;font style=&quot;font-size: 24px;&quot;&gt;用户&lt;/font&gt;" style="rounded=0;whiteSpace=wrap;html=1;strokeColor=#97D077;" vertex="1" parent="1">
          <mxGeometry x="540" y="340" width="120" height="60" as="geometry" />
        </mxCell>
        <mxCell id="_5qrmcJRJbXf1N6IQA08-6" value="" style="endArrow=classic;html=1;rounded=0;fontSize=24;exitX=0;exitY=1;exitDx=0;exitDy=0;entryX=1;entryY=0.5;entryDx=0;entryDy=0;strokeColor=#3399FF;" edge="1" parent="1" source="_5qrmcJRJbXf1N6IQA08-2" target="_5qrmcJRJbXf1N6IQA08-1">
          <mxGeometry width="50" height="50" relative="1" as="geometry">
            <mxPoint x="370" y="340" as="sourcePoint" />
            <mxPoint x="420" y="290" as="targetPoint" />
          </mxGeometry>
        </mxCell>
        <mxCell id="_5qrmcJRJbXf1N6IQA08-8" value="上传、管理广告" style="text;html=1;align=center;verticalAlign=middle;resizable=0;points=[];autosize=1;strokeColor=none;fillColor=none;fontSize=24;" vertex="1" parent="1">
          <mxGeometry x="319" y="170" width="190" height="40" as="geometry" />
        </mxCell>
        <mxCell id="_5qrmcJRJbXf1N6IQA08-9" value="" style="endArrow=classic;html=1;rounded=0;fontSize=24;strokeColor=#3399FF;exitX=0;exitY=0;exitDx=0;exitDy=0;entryX=1;entryY=0.5;entryDx=0;entryDy=0;" edge="1" parent="1" source="_5qrmcJRJbXf1N6IQA08-3" target="_5qrmcJRJbXf1N6IQA08-1">
          <mxGeometry width="50" height="50" relative="1" as="geometry">
            <mxPoint x="370" y="340" as="sourcePoint" />
            <mxPoint x="420" y="290" as="targetPoint" />
          </mxGeometry>
        </mxCell>
        <mxCell id="_5qrmcJRJbXf1N6IQA08-10" value="浏览、选择广告" style="text;html=1;align=center;verticalAlign=middle;resizable=0;points=[];autosize=1;strokeColor=none;fillColor=none;fontSize=24;" vertex="1" parent="1">
          <mxGeometry x="319" y="320" width="190" height="40" as="geometry" />
        </mxCell>
      </root>
    </mxGraphModel>
  </diagram>
</mxfile>
